<?xml version="1.0" encoding="utf-8"?>
<!-- Generator: Adobe Illustrator 18.0.0, SVG Export Plug-In . SVG Version: 6.00 Build 0)  -->
<!DOCTYPE svg PUBLIC "-//W3C//DTD SVG 1.1//EN" "http://www.w3.org/Graphics/SVG/1.1/DTD/svg11.dtd">
<svg version="1.1" id="Layer_1" xmlns="http://www.w3.org/2000/svg" xmlns:xlink="http://www.w3.org/1999/xlink" x="0px" y="0px"
	 viewBox="0 231 960 98.1" enable-background="new 0 231 960 98.1" xml:space="preserve">
<title>No_circle_final_logo</title>
<path d="M451.4,273.4c-0.3-12.7-10.8-22.9-23.5-22.6c-8.7,0.2-16.6,5.2-20.4,13.1c-5.5-11.5-19.3-16.4-30.8-10.9
	c-7.7,3.7-12.8,11.4-13.1,19.9l0,0v0.9l0,0l0,0v30.6h4.6v-30.6c0-10.2,8.3-18.5,18.5-18.5s18.5,8.3,18.5,18.5l0,0v30.6h4.6v-30.6
	l0,0c0-10.2,8.3-18.5,18.5-18.5s18.5,8.3,18.5,18.5l0,0v30.6h4.6L451.4,273.4L451.4,273.4L451.4,273.4z"/>
<polygon points="698.7,304.1 698.7,249.8 703.2,249.8 703.2,304.1 698.7,304.1 "/>
<polygon points="698.7,244.9 698.7,239.9 703.2,239.9 703.2,244.9 698.7,244.9 "/>
<path d="M943.4,288.6c-0.1-6.4-5.4-11.4-11.8-11.3c-4.4,0.1-8.3,2.6-10.2,6.5c-2.8-5.7-9.7-8.2-15.4-5.4c-3.9,1.9-6.4,5.7-6.5,10
	l0,0v15.7h2.3v-15.3c0-5.1,4.1-9.3,9.3-9.3s9.3,4.1,9.3,9.3l0,0l0,0v15.3h2.3v-15.3l0,0c0-5.1,4.1-9.3,9.3-9.3s9.3,4.1,9.3,9.3l0,0
	v15.3h2.3L943.4,288.6L943.4,288.6L943.4,288.6z"/>
<path d="M868.7,291.3c0-7.4,6-13.5,13.5-13.5l0,0c7.4,0,13.5,6,13.5,13.5l0,0c0,7.4-6,13.5-13.5,13.5l0,0
	C874.7,304.8,868.7,298.7,868.7,291.3L868.7,291.3L868.7,291.3z M882.2,302.5c6.2,0,11.2-5,11.2-11.2l0,0c0-6.2-5-11.2-11.2-11.2
	l0,0c-6.2,0-11.2,5-11.2,11.2l0,0C871,297.5,876,302.5,882.2,302.5L882.2,302.5z"/>
<path d="M839.6,291.3c0-7.4,6-13.5,13.5-13.5l0,0c5.3,0,10.1,3.1,12.2,7.9l0,0l-2.1,1c-1.8-4-5.8-6.5-10.2-6.5l0,0
	c-6.2,0-11.2,5-11.2,11.2l0,0c0,6.2,5,11.2,11.2,11.2l0,0c4.4,0,8.3-2.6,10.2-6.5l0,0l2.1,1c-2.2,4.8-7,7.9-12.2,7.9l0,0
	C845.6,304.8,839.6,298.7,839.6,291.3L839.6,291.3z"/>
<polygon points="828.9,304.3 828.9,299.3 833.5,299.3 833.5,304.3 828.9,304.3 "/>
<path d="M39.5,249.4c-15,0-27.3,11.7-28.1,26.7l0,0v53h6.9v-33.3c10.1,11.7,27.9,13,39.6,2.9s13-27.9,2.9-39.6
	C55.5,253,47.7,249.4,39.5,249.4z M39.5,298.6c-11.7,0-21.1-9.5-21.2-21.1v-0.1c0-11.7,9.5-21.1,21.2-21.1s21.1,9.5,21.1,21.2
	C60.7,289.2,51.2,298.7,39.5,298.6L39.5,298.6z"/>
<path d="M132.3,277.5C132.3,277.5,132.3,277.5,132.3,277.5v-1.4l0,0c0-0.3,0-0.6-0.1-0.9c-0.1-0.3,0-0.4,0-0.6
	c0-0.2-0.1-0.5-0.1-0.8s0-0.4-0.1-0.6c-0.1-0.2-0.1-0.5-0.1-0.8c0-0.3-0.1-0.4-0.1-0.6c0-0.2-0.1-0.5-0.2-0.8
	c-0.1-0.3-0.1-0.4-0.1-0.6c-0.1-0.2-0.1-0.5-0.2-0.7c-0.1-0.2-0.1-0.4-0.2-0.6c-0.1-0.2-0.1-0.5-0.2-0.7c-0.1-0.2-0.1-0.4-0.2-0.6
	c-0.1-0.2-0.2-0.5-0.3-0.7l-0.2-0.6l-0.3-0.7l-0.3-0.6l-0.3-0.7l-0.3-0.6l-0.4-0.6l-0.3-0.5l-0.4-0.6l-0.3-0.5l-0.4-0.6l-0.4-0.5
	l-0.4-0.6l-0.4-0.5l-0.4-0.5l-0.4-0.5l-0.5-0.5l-0.4-0.5l-0.5-0.5l-0.5-0.4l-0.5-0.5l-0.5-0.4l-0.5-0.4l-0.5-0.4l-0.5-0.4l-0.5-0.4
	l-0.6-0.4l-0.6-0.4l-0.6-0.4L118,253l-0.6-0.3l-0.6-0.3l-0.6-0.3l-0.6-0.3l-0.6-0.3l-0.7-0.3l-0.6-0.2l-0.7-0.2l-0.6-0.2l-0.7-0.1
	l-0.6-0.2l-0.7-0.2l-0.6-0.1l-0.8-0.2l-0.6-0.1l-0.8-0.1l-0.6-0.1l-0.9-0.1h-0.5c-0.5,0-0.9,0-1.4,0c-15.5,0-28.1,12.6-28.1,28.1
	c0,15.5,12.6,28.1,28.1,28.1c0.5,0,1,0,1.5,0h0.5l1-0.1l0.7-0.2l0.9-0.1l0.6-0.1l0.8-0.2l0.5-0.1l0.9-0.2l0.5-0.1l0.9-0.3l0.4-0.1
	l1-0.4l0.4-0.1l1.1-0.5l0.3-0.1c0.4-0.2,0.8-0.4,1.2-0.6l0,0c3-1.6,5.8-3.8,8-6.4l0,0v8.5h6.9L132.3,277.5
	C132.2,277.5,132.3,277.5,132.3,277.5z M83,277.5c0-11.7,9.5-21.2,21.2-21.1s21.2,9.5,21.1,21.2c0,11.7-9.5,21.1-21.2,21.1
	C92.5,298.7,83,289.2,83,277.5z"/>
<path d="M159.9,249.4L159.9,249.4c-8.9,0.6-15.9,7.9-16.1,16.9l0,0v38.2h6.9v-37.9c0-5.7,4.6-10.3,10.3-10.3h8.7v-6.9H159.9
	L159.9,249.4z"/>
<path d="M195.3,298.2c-5.7,0-10.3-4.6-10.3-10.3l0,0v-31.1h18.9v-6.9H185v-18.4h-6.9v56.3l0,0v0.2l0,0c0.1,9,7.1,16.3,16.1,16.9l0,0
	h9.7v-6.9L195.3,298.2L195.3,298.2z"/>
<path d="M260.7,273.4V273l0,0c-0.1-5.6-2.1-10.9-5.7-15.1l0,0c-0.5-0.6-1-1.1-1.5-1.7l-0.1-0.1c-0.5-0.5-1-1-1.6-1.4l-0.3-0.2
	c-0.5-0.4-1-0.8-1.6-1.1l-0.5-0.3c-0.5-0.3-1-0.6-1.5-0.9c-0.2-0.1-0.4-0.2-0.7-0.3c-0.5-0.2-0.9-0.5-1.4-0.7
	c-0.3-0.1-0.6-0.2-0.9-0.3s-0.9-0.3-1.3-0.5s-0.8-0.2-1.1-0.3s-0.8-0.2-1.1-0.3c-0.4-0.1-1-0.2-1.5-0.2c-0.3,0-0.6-0.1-0.9-0.1
	c-0.8-0.1-1.6-0.1-2.5-0.1c-0.8,0-1.6,0-2.5,0.1c-0.3,0-0.6,0.1-0.9,0.1c-0.5,0.1-1,0.1-1.5,0.2s-0.7,0.2-1.1,0.3
	c-0.4,0.1-0.8,0.2-1.1,0.3c-0.4,0.1-0.8,0.3-1.2,0.4s-0.6,0.2-1,0.3c-0.3,0.1-0.9,0.4-1.3,0.6c-0.2,0.1-0.5,0.2-0.7,0.4
	c-0.5,0.3-1,0.6-1.4,0.8l-0.6,0.3c-0.5,0.3-1,0.7-1.5,1.1l-0.4,0.3c-0.5,0.4-1,0.8-1.5,1.3l-0.2,0.2c-0.5,0.5-1,1-1.4,1.5l-0.1,0.1
	c-0.5,0.6-0.9,1.1-1.4,1.7l0,0c-2.7,3.8-4.2,8.4-4.4,13.1l0,0V304h6.9v-30.6l0,0c0-9.6,7.8-17.4,17.4-17.4c9.6,0,17.4,7.8,17.4,17.4
	l0,0V304h6.9L260.7,273.4L260.7,273.4L260.7,273.4L260.7,273.4z"/>
<path d="M319.2,280.8h6.2v-3.3c0-15.5-12.5-28.1-28-28.2s-28.1,12.5-28.2,28c0,15.5,12.5,28.1,28,28.2c12,0,22.8-7.6,26.7-19
	l0.4-1.1l-1.4-0.5h-5.7l-0.3,0.7c-3.3,7.9-11,13-19.5,13h-0.1c-10.4,0-19.2-7.6-20.8-17.8H319.2L319.2,280.8z M276.5,273.9
	c1.9-11.5,12.8-19.3,24.4-17.3c8.9,1.5,15.8,8.5,17.3,17.3H276.5L276.5,273.9z"/>
<path d="M351.4,249.4h-1.1l0,0l0,0c-0.6,0-1.1,0.1-1.6,0.2l0,0c-0.5,0.1-1.1,0.2-1.6,0.3l0,0c-0.5,0.1-1,0.3-1.5,0.5l0,0
	c-0.5,0.2-1,0.4-1.4,0.6l0,0c-0.5,0.2-0.9,0.5-1.4,0.7l0,0c-0.4,0.3-0.9,0.5-1.3,0.8l0,0c-0.4,0.3-0.8,0.6-1.1,0.9l0,0
	c-0.4,0.3-0.8,0.7-1.1,1.1l0,0c-3,3.1-4.7,7.3-4.7,11.6l0,0v0.4l0,0v37.8h6.9v-37.8c0-5.7,4.6-10.3,10.3-10.3h8.4v-6.9H351.4z"/>
<path d="M513.7,276.2c-0.7-14.8-13.4-26.3-28.2-25.5c-14.8,0.7-26.3,13.4-25.5,28.2s13.4,26.3,28.2,25.5c8.4-0.4,16.2-4.8,20.9-11.8
	v11.8h4.6V276.2L513.7,276.2z M486.8,299.9c-12.3,0-22.3-10-22.3-22.3c0-12.3,10-22.3,22.3-22.3c12.3,0,22.3,10,22.3,22.3
	c0,0,0,0,0,0C509.1,289.9,499.2,299.9,486.8,299.9z"/>
<path d="M647.9,279.8h4.6v-2.2c0-14.9-12-27-26.9-27s-27,12-27,26.9c0,14.9,12,27,26.9,27c11.5,0,21.8-7.3,25.6-18.2H651h-4.8
	c-4.8,11.4-17.8,16.7-29.2,12c-7.6-3.2-12.8-10.2-13.6-18.4L647.9,279.8L647.9,279.8z M625.6,255.2c11.4,0,21,8.6,22.2,19.9h-44.4
	C604.7,263.8,614.2,255.3,625.6,255.2z"/>
<path d="M677.3,299.6L677.3,299.6c-6.3,0-11.5-5.1-11.5-11.5l0,0v-32.3h20.1v-4.6h-20.1v-19.5h-4.6v56.6l0,0
	c0.1,8.3,6.6,15.2,14.9,15.8l0,0h9.8v-4.6L677.3,299.6L677.3,299.6z"/>
<path d="M761.6,273.4L761.6,273.4c-0.3-12.7-10.8-22.9-23.5-22.6c-12.2,0.2-22.1,10-22.6,22.2l0,0v0.9l0,0v30.6h4.6v-30.6l0,0
	c0-10.2,8.3-18.5,18.5-18.5c10.2,0,18.5,8.3,18.5,18.5l0,0v30.6h4.6L761.6,273.4L761.6,273.4z"/>
<path d="M823.5,276.3c-0.7-14.8-13.4-26.3-28.2-25.5c-14.8,0.7-26.3,13.4-25.5,28.2c0.7,14.8,13.4,26.3,28.2,25.5
	c8.4-0.4,16.2-4.8,20.9-11.8v9.7l0,0c0,12.1-9.8,21.9-21.9,21.9c-8.3,0-15.9-4.7-19.6-12.2l-4.1,2c6.4,13.1,22.3,18.5,35.4,12.1
	c8.7-4.3,14.4-12.9,14.8-22.6l0,0V276.3L823.5,276.3z M796.6,300c-12.3,0-22.3-10-22.3-22.3c0-12.3,10-22.3,22.3-22.3
	c12.3,0,22.3,10,22.3,22.3c0,0,0,0,0,0C818.9,290,808.9,300,796.6,300z"/>
<polygon points="595.2,252.7 592,249.5 567.7,273.8 564.5,277 564.5,231 559.9,231 559.9,304.2 564.5,304.2 564.5,277 567.7,280.3 
	592,304.5 595.2,301.3 571,277 "/>
<polygon points="698.7,304.1 698.7,249.8 703.2,249.8 703.2,304.1 698.7,304.1 "/>
<polygon points="698.7,244.9 698.7,239.9 703.2,239.9 703.2,244.9 698.7,244.9 "/>
<path d="M868.7,291.3c0-7.4,6-13.5,13.5-13.5l0,0c7.4,0,13.5,6,13.5,13.5l0,0c0,7.4-6,13.5-13.5,13.5l0,0
	C874.7,304.8,868.7,298.7,868.7,291.3L868.7,291.3L868.7,291.3z M882.2,302.5c6.2,0,11.2-5,11.2-11.2l0,0c0-6.2-5-11.2-11.2-11.2
	l0,0c-6.2,0-11.2,5-11.2,11.2l0,0C871,297.5,876,302.5,882.2,302.5L882.2,302.5z"/>
<path d="M839.6,291.3c0-7.4,6-13.5,13.5-13.5l0,0c5.3,0,10.1,3.1,12.2,7.9l0,0l-2.1,1c-1.8-4-5.8-6.5-10.2-6.5l0,0
	c-6.2,0-11.2,5-11.2,11.2l0,0c0,6.2,5,11.2,11.2,11.2l0,0c4.4,0,8.3-2.6,10.2-6.5l0,0l2.1,1c-2.2,4.8-7,7.9-12.2,7.9l0,0
	C845.6,304.8,839.6,298.7,839.6,291.3L839.6,291.3z"/>
<polygon points="828.9,304.3 828.9,299.3 833.5,299.3 833.5,304.3 828.9,304.3 "/>
<path d="M549.8,250.5H540l0,0c-8.3,0.6-14.8,7.4-14.9,15.8l0,0v38.2h4.6v-37.9c0-6.3,5.1-11.5,11.5-11.5h8.7L549.8,250.5
	L549.8,250.5z"/>
</svg>
